<svg width="24" height="24" viewBox="0 0 24 24" fill="none" xmlns="http://www.w3.org/2000/svg">
<path d="M19.625 2.30882H17.3162V1.15441C17.3162 0.848243 17.1945 0.554613 16.9781 0.338119C16.7616 0.121625 16.4679 0 16.1618 0C15.8556 0 15.562 0.121625 15.3455 0.338119C15.129 0.554613 15.0073 0.848243 15.0073 1.15441V2.30882H8.08088V1.15441C8.08088 0.848243 7.95926 0.554613 7.74276 0.338119C7.52627 0.121625 7.23264 0 6.92647 0C6.6203 0 6.32667 0.121625 6.11018 0.338119C5.89368 0.554613 5.77206 0.848243 5.77206 1.15441V2.30882H3.46323C2.54473 2.30882 1.66384 2.6737 1.01436 3.32318C0.364876 3.97266 0 4.85355 0 5.77206V19.625C0 20.5435 0.364876 21.4244 1.01436 22.0739C1.66384 22.7234 2.54473 23.0882 3.46323 23.0882H19.625C20.5435 23.0882 21.4244 22.7234 22.0739 22.0739C22.7234 21.4244 23.0882 20.5435 23.0882 19.625V5.77206C23.0882 4.85355 22.7234 3.97266 22.0739 3.32318C21.4244 2.6737 20.5435 2.30882 19.625 2.30882ZM20.7794 19.625C20.7794 19.9312 20.6578 20.2248 20.4413 20.4413C20.2248 20.6578 19.9312 20.7794 19.625 20.7794H3.46323C3.15707 20.7794 2.86344 20.6578 2.64694 20.4413C2.43045 20.2248 2.30882 19.9312 2.30882 19.625V11.5441H20.7794V19.625ZM20.7794 9.23529H2.30882V5.77206C2.30882 5.46589 2.43045 5.17226 2.64694 4.95577C2.86344 4.73927 3.15707 4.61765 3.46323 4.61765H5.77206V5.77206C5.77206 6.07823 5.89368 6.37186 6.11018 6.58835C6.32667 6.80484 6.6203 6.92647 6.92647 6.92647C7.23264 6.92647 7.52627 6.80484 7.74276 6.58835C7.95926 6.37186 8.08088 6.07823 8.08088 5.77206V4.61765H15.0073V5.77206C15.0073 6.07823 15.129 6.37186 15.3455 6.58835C15.562 6.80484 15.8556 6.92647 16.1618 6.92647C16.4679 6.92647 16.7616 6.80484 16.9781 6.58835C17.1945 6.37186 17.3162 6.07823 17.3162 5.77206V4.61765H19.625C19.9312 4.61765 20.2248 4.73927 20.4413 4.95577C20.6578 5.17226 20.7794 5.46589 20.7794 5.77206V9.23529Z" fill="#721EC2"/>
</svg>
