<svg width="24" height="27" viewBox="0 0 24 27" fill="none" xmlns="http://www.w3.org/2000/svg">
<path d="M7.29167 2.92024C6.90489 2.92024 6.53396 3.07389 6.26047 3.34738C5.98698 3.62087 5.83333 3.9918 5.83333 4.37857C5.83333 4.76535 5.98698 5.13628 6.26047 5.40977C6.53396 5.68326 6.90489 5.83691 7.29167 5.83691C7.67844 5.83691 8.04937 5.68326 8.32286 5.40977C8.59635 5.13628 8.75 4.76535 8.75 4.37857C8.75 3.9918 8.59635 3.62087 8.32286 3.34738C8.04937 3.07389 7.67844 2.92024 7.29167 2.92024ZM3.16458 2.92024C3.46588 2.06634 4.02462 1.32691 4.76379 0.803892C5.50296 0.280869 6.38617 0 7.29167 0C8.19717 0 9.08037 0.280869 9.81954 0.803892C10.5587 1.32691 11.1175 2.06634 11.4187 2.92024H21.875C22.2618 2.92024 22.6327 3.07389 22.9062 3.34738C23.1797 3.62087 23.3333 3.9918 23.3333 4.37857C23.3333 4.76535 23.1797 5.13628 22.9062 5.40977C22.6327 5.68326 22.2618 5.83691 21.875 5.83691H11.4187C11.1175 6.69081 10.5587 7.43023 9.81954 7.95326C9.08037 8.47628 8.19717 8.75715 7.29167 8.75715C6.38617 8.75715 5.50296 8.47628 4.76379 7.95326C4.02462 7.43023 3.46588 6.69081 3.16458 5.83691H1.45833C1.07156 5.83691 0.700627 5.68326 0.427136 5.40977C0.153646 5.13628 0 4.76535 0 4.37857C0 3.9918 0.153646 3.62087 0.427136 3.34738C0.700627 3.07389 1.07156 2.92024 1.45833 2.92024H3.16458ZM16.0417 11.6702C15.6549 11.6702 15.284 11.8239 15.0105 12.0974C14.737 12.3709 14.5833 12.7418 14.5833 13.1286C14.5833 13.5153 14.737 13.8863 15.0105 14.1598C15.284 14.4333 15.6549 14.5869 16.0417 14.5869C16.4284 14.5869 16.7994 14.4333 17.0729 14.1598C17.3464 13.8863 17.5 13.5153 17.5 13.1286C17.5 12.7418 17.3464 12.3709 17.0729 12.0974C16.7994 11.8239 16.4284 11.6702 16.0417 11.6702ZM11.9146 11.6702C12.2159 10.8163 12.7746 10.0769 13.5138 9.55389C14.253 9.03087 15.1362 8.75 16.0417 8.75C16.9472 8.75 17.8304 9.03087 18.5695 9.55389C19.3087 10.0769 19.8675 10.8163 20.1688 11.6702H21.875C22.2618 11.6702 22.6327 11.8239 22.9062 12.0974C23.1797 12.3709 23.3333 12.7418 23.3333 13.1286C23.3333 13.5153 23.1797 13.8863 22.9062 14.1598C22.6327 14.4333 22.2618 14.5869 21.875 14.5869H20.1688C19.8675 15.4408 19.3087 16.1802 18.5695 16.7033C17.8304 17.2263 16.9472 17.5071 16.0417 17.5071C15.1362 17.5071 14.253 17.2263 13.5138 16.7033C12.7746 16.1802 12.2159 15.4408 11.9146 14.5869H1.45833C1.07156 14.5869 0.700627 14.4333 0.427136 14.1598C0.153646 13.8863 0 13.5153 0 13.1286C0 12.7418 0.153646 12.3709 0.427136 12.0974C0.700627 11.8239 1.07156 11.6702 1.45833 11.6702H11.9146ZM7.29167 20.4202C6.90489 20.4202 6.53396 20.5739 6.26047 20.8474C5.98698 21.1209 5.83333 21.4918 5.83333 21.8786C5.83333 22.2653 5.98698 22.6363 6.26047 22.9098C6.53396 23.1833 6.90489 23.3369 7.29167 23.3369C7.67844 23.3369 8.04937 23.1833 8.32286 22.9098C8.59635 22.6363 8.75 22.2653 8.75 21.8786C8.75 21.4918 8.59635 21.1209 8.32286 20.8474C8.04937 20.5739 7.67844 20.4202 7.29167 20.4202ZM3.16458 20.4202C3.46588 19.5663 4.02462 18.8269 4.76379 18.3039C5.50296 17.7809 6.38617 17.5 7.29167 17.5C8.19717 17.5 9.08037 17.7809 9.81954 18.3039C10.5587 18.8269 11.1175 19.5663 11.4187 20.4202H21.875C22.2618 20.4202 22.6327 20.5739 22.9062 20.8474C23.1797 21.1209 23.3333 21.4918 23.3333 21.8786C23.3333 22.2653 23.1797 22.6363 22.9062 22.9098C22.6327 23.1833 22.2618 23.3369 21.875 23.3369H11.4187C11.1175 24.1908 10.5587 24.9302 9.81954 25.4533C9.08037 25.9763 8.19717 26.2571 7.29167 26.2571C6.38617 26.2571 5.50296 25.9763 4.76379 25.4533C4.02462 24.9302 3.46588 24.1908 3.16458 23.3369H1.45833C1.07156 23.3369 0.700627 23.1833 0.427136 22.9098C0.153646 22.6363 0 22.2653 0 21.8786C0 21.4918 0.153646 21.1209 0.427136 20.8474C0.700627 20.5739 1.07156 20.4202 1.45833 20.4202H3.16458Z" fill="#8E0FFF"/>
</svg>
