<svg width="20" height="20" viewBox="0 0 20 20" fill="none" xmlns="http://www.w3.org/2000/svg">
<g clip-path="url(#clip0_251_5783)">
<path d="M11.8234 15.9174V16.8246H13.6377V17.7377H5.45527V16.8246H7.27559V15.9174H5.45527V14.0971H4.5481V17.7377H2.72778V18.6449H16.3712V17.7377H14.5509V14.0971H13.6377V15.9174H11.8234Z" fill="#D1083B"/>
<path d="M12.7302 12.2766H13.6373V14.0969H12.7302V12.2766ZM12.7302 5.00131H13.6373V6.82163H12.7302V5.00131ZM11.823 11.3694H12.7302V12.2766H11.823V11.3694ZM10.9099 10.4623H11.823V11.3694H10.9099V10.4623ZM10.0027 15.0041H11.823V15.9172H10.0027V15.0041Z" fill="#D1083B"/>
<path d="M11.8232 8.64212V7.72898H12.7304V6.82181H6.3623V7.72898H7.27545V8.64212H8.18262V10.4624H9.09576V15.0043H10.0029V10.4624H10.9101V8.64212H11.8232ZM7.27545 15.0043H9.09576V15.9174H7.27545V15.0043Z" fill="#D1083B"/>
<path d="M7.27559 10.4622H8.18276V11.3694H7.27559V10.4622ZM6.36245 11.3694H7.27559V12.2765H6.36245V11.3694ZM5.45527 12.2765H6.36245V14.0969H5.45527V12.2765ZM5.45527 5.00125H6.36245V6.82156H5.45527V5.00125ZM5.45527 1.36659H13.6377V5.00125H14.5509V1.36659H16.3712V0.453445H2.72778V1.36659H4.5481V5.00125H5.45527V1.36659Z" fill="#D1083B"/>
</g>
<defs>
<clipPath id="clip0_251_5783">
<rect width="19.0984" height="19.0984" fill="white"/>
</clipPath>
</defs>
</svg>
