<svg width="20" height="23" viewBox="0 0 20 23" fill="none" xmlns="http://www.w3.org/2000/svg">
<path d="M19.4948 6.3856C19.4885 6.35513 19.4885 6.32371 19.4948 6.29324C19.49 6.26652 19.49 6.23916 19.4948 6.21243V6.10854L19.4255 5.93538C19.3971 5.88832 19.3621 5.84556 19.3216 5.80839L19.2177 5.71604H19.16L14.6116 2.84155L10.3172 0.186406C10.2171 0.108758 10.1036 0.0500714 9.9824 0.0132444H9.89005C9.7869 -0.00441481 9.68151 -0.00441481 9.57836 0.0132444H9.46292C9.32865 0.0423323 9.19999 0.0930156 9.08196 0.163318L0.458509 5.53133L0.354612 5.61214L0.250715 5.70449L0.135274 5.7853L0.0775532 5.85457L0.0082883 6.02773V6.20089C-0.00276277 6.27745 -0.00276277 6.35521 0.0082883 6.43177V16.5098C0.00789571 16.706 0.0575079 16.899 0.152441 17.0707C0.247374 17.2424 0.384496 17.3871 0.550862 17.491L9.20895 22.8475L9.38211 22.9168H9.47446C9.66977 22.9787 9.87945 22.9787 10.0748 22.9168H10.1671L10.3403 22.8475L18.9291 17.5718C19.0955 17.4679 19.2326 17.3232 19.3275 17.1515C19.4224 16.9798 19.4721 16.7868 19.4717 16.5906V6.51258C19.4717 6.51258 19.4948 6.43177 19.4948 6.3856ZM9.6938 2.51832L11.7487 3.78817L5.29549 7.78243L3.2291 6.51258L9.6938 2.51832ZM8.53939 19.8345L2.19013 15.9557V8.57898L8.53939 12.504V19.8345ZM9.6938 10.4722L7.48887 9.14464L13.942 5.13883L16.1585 6.51258L9.6938 10.4722ZM17.1975 15.921L10.8482 19.8691V12.504L17.1975 8.57898V15.921Z" fill="#721EC2"/>
</svg>
